<?xml version="1.0" encoding="UTF-8"?>
<svg id="Layer_1" xmlns="http://www.w3.org/2000/svg" version="1.1" viewBox="0 0 1080 1080">
  <!-- Generator: Adobe Illustrator 29.3.1, SVG Export Plug-In . SVG Version: 2.1.0 Build 151)  -->
  <defs>
    <style>
      .st0 {
        fill: #fff;
      }
    </style>
  </defs>
  <path class="st0" d="M1076.13,678.33c9.24-54.59,2.53-103.8-26.66-151.08-27.22-44.08-69.28-73.36-119.39-86.18l.08-291.77c1.85-20.84,7.43-38.65,23.61-52.54,6.55-5.62,15.36-7.93,16.55-18.16,1.32-11.46-11.74-16.8-21.09-17.62-26.64-2.33-55.31,14.49-83.07,16.24-28.75,1.82-50.74-8.52-77.67-12.42-11.71-1.7-41.95-3.56-36.89,16.13,2.57,9.99,24.8,10.49,28.92,27.61,5.43,22.57-13.04,55.74-22.45,76.35-32.28,70.7-66.47,141.19-100.38,211.14-6.87,14.18-14.32,28.13-21.18,42.29l-124.86-303.2c-4.82-15.36-4.24-35.14,7.15-47.58,6.75-7.38,32.07-13.65,17.38-27.71-18.44-17.65-65.82,4.16-87.16,9.85-10.26,2.73-41.08,9.11-71.93,8.65-73.58-1.1-104.28-42.92-149.14-23.93-16.58,7.02-24.89,18.03-27.47,21.72-.83,1.2-18.83,27.99-6.9,56.43,1.83,4.35,11.03,26.28,31.66,29.38,1.54.23,18.04,2.47,27.1-7.76,10.27-11.61-1.21-25.52,8.31-39.91,7.39-11.18,23.59-16.8,37.14-13.86,13.32,2.89,20.78,13.31,23.83,17.74,18.61,26.99,6.37,61.53,4.26,67.22l-36.14,94.86c-55.37-24.23-123.82-41.79-181.86-16.33-37.66,16.52-61.8,52.06-57.92,94.09,3.25,35.2,32.64,70.86,70.68,66.37,11.73-1.38,23.15-11.62,29.65-22.39,4.79-7.94,5.99-15.32,6.86-21.04,3.92-25.73-7.47-33.61-2.92-44.84,9.27-22.86,72.72-30.32,108.65-2.95,2.08,1.59,3.76,3.05,5,4.19l-59.04,152.74c-34.34-.46-68.08,5.26-98.9,20.53-66.06,32.71-107.9,110.66-94.39,184.1,6.97,37.89,31.39,72.18,60.89,96.08l.9,2.14c-9.27,15.26-23.16,26.9-39.02,34.88-9.38,4.72-24.59,8.18-31.83,15.48-11.74,11.84-6.48,31.39,7.19,39.05,20.55,11.52,39.72.09,58.07-9.56,10.14-5.33,37.38-24.74,45.65-25.88,31.1-4.31,54.57,37.3,94.5,33.35,11.15-1.11,28.93-9.17,28.36-22.47-.49-11.29-12.93-10.19-20.89-13.82-1.64-.75-15.92-9.74-14.95-10.99,34.43-6.23,54.92-40.64,64.62-71.55,16.7,8.19,34.4,7.35,43.77-1.8,5.57-5.44,7.84-13.46,8.16-14.65.82-3.01,2.68-11.49-.64-20.43-4.8-12.92-15.76-13.78-15.48-20.4.47-11.22,29.27-19,32.86-18.98,14.94.09,29.88.17,44.82.26,2.08.7,6.41,16.19,7.12,19.42,14.55,66.62-11.71,171.59-58.28,222.18-15.12,16.43-48.8,37.69-70.34,21.81-7.34-5.41-7.84-15.52-20.91-9.22-18.39,8.87-7.25,35.43,5.46,45.44,32.35,25.5,80.14,13.12,112.21-6.24,82.08-49.54,111.1-145.72,102.77-237.58-1.71-18.85-6.03-37.63-10.37-55.97h26.54c28.88,66.79,67.64,136.17,125.22,182.27,52.42,41.97,115.36,69.09,184,60.04-31.92,20.98-69.89,40.68-107.05,50.43-48.6,12.75-118.75,5.72-130.08-21.56-3.91-9.41-2.2-18.38-2.2-18.38,2.78-14.65,15.4-17.11,22.22-33.33.96-2.27,6.25-14.87,2.45-27.28-5.44-17.76-28.04-28.64-44.35-28.44-57.1.7-66.24,73.05-43.88,114.35,47.77,88.2,171.24,75.39,249.44,41.71,75.11-32.35,143.37-86.43,211.12-131.54,23.29,10.1,45.28,23.51,72,18.91,10.58-1.82,21.53-10.88,17.88-22.63-2.31-7.45-12.3-7.02-18.26-9.43-12.58-5.08-20.73-12.26-29.66-22.24,44.98-43.26,79.99-97.23,90.58-159.77ZM235.99,66.24c-2.32,1.34-13.68,8.16-20.77,21.68-12.72,24.22-1.07,49.65.45,52.84-4.95-2.65-12.56-7.74-16.53-16.61-9.34-20.86,6.72-50.88,29.8-61.7,13.55-6.35,26.82-4.82,33.52-3.51-4.95.07-15.42.89-26.47,7.3ZM121.53,276.77c-5.95,4.17-44.21,31.9-43.82,77.83.19,22.55,9.62,39.5,14.78,47.43-6.44-2.7-16.54-8.08-24.32-18.59-21.03-28.4-4.35-66.24-2.62-70.01,10.9-23.74,30.75-34.82,41.94-41.06,30.75-17.15,61.27-16.06,75.66-14.5-11.66.01-37.17,1.79-61.61,18.9ZM511.02,878.42c-26.32,42.96,5.85,98.57,8.07,102.28-6.01-3.69-32.96-21.12-38.76-52.8-2.56-13.97-.02-25.33.89-28.93,1.83-7.27,6.65-26.69,24.48-36.5,10.17-5.59,20.27-5.68,25.57-5.32-10.23,7.19-16.42,15.02-20.25,21.26ZM930.74,486.76c71.34,33.46,84.78,128.35,66,197.56-10.38,38.26-32.3,77.49-59.66,105.9-4.33-14.11-5.51-28.59-6.98-43.22l.64-260.24ZM820.9,607.64c-.14-15.08-.53-50.58-1.09-87.89-.13-8.5-.37-23.8-.49-44.53-.13-21.61-.05-35.82-.04-42.01.03-33.57-1.6-115.79-2.29-174.79-.07-6.42-.19-22.8,3.36-23.43,2.43-.43,5.54,6.72,6.68,9.18,17.6,37.95,16.08,272.27,16.05,300.98-.14,130.19.67,153.83.67,153.83,1.79,28.11,7.12,96.83-19.54,112.61-11.5,6.8-21.88,15.37-33.34,22.24-5.36,3.22-10.94,6.28-13.74,12.73-1.76,4.05-1.55,7.42-4.21,8.65-2.98,1.38-7.89-.68-9.74-4.25-1.85-3.55-.09-7.55.57-9.11,2.76-6.48,8.23-7.07,21.25-15.18,10.8-6.72,13.75-10.39,14.88-11.89,3.32-4.41,4.74-8.57,5.99-12.58,6.47-20.67,7.56-31.55,7.56-31.55,8.2-82.12,7.45-163.02,7.45-163.02ZM669.41,384.59c59.08-120.86,100.95-209.96,108.86-229.2,6.62-16.1,7.74-27.66,7.98-30.48,1.21-14.26-1.49-23.28-.04-23.65,2.18-.55,12.84,18.52,13.12,40.45.25,19.11-7.48,32.06-17.38,50.71-12.34,23.23-21.25,48.2-33.99,71.21-59.57,107.53-94.09,192.98-106.05,188.65-.9-.33-2.25-1.37-2.94-5.4,12.9-26.82,23.55-48.41,30.45-62.29ZM456.2,77.57c10.96-4.43,22.84-11.53,43.17-15.46,6.87-1.33,12.61-1.87,16.39-2.13-6.02,1.26-14.84,3.59-24.74,8.2-16.19,7.54-21.86,14.93-30.89,19.62-10.25,5.32-27.03,8.3-55.4-3.01,23.6,1.66,40.34-2.71,51.47-7.22ZM406.06,177.41c2.5-1.88,11.09,5.64,13.94,8.13,34.3,29.96,89.62,196.14,113.15,255.3,2.07,5.21,6.39,15.85,9.78,24.16,18.08,44.26,16.12,36.74,38.09,88.39,21.65,50.9,37.69,61.78,46.54,68.12,10.41,7.47,20.36,11.72,27.33,14.17-6.11,1-15.01,1.74-25.2-.3-46.94-9.4-62.04-65.9-105.35-162.63-41.8-93.34-76.8-189.59-116.25-283.95-.95-2.28-4.15-9.8-2.04-11.39ZM330.17,194.18c1.83-4.71,6.54-16.84,7.26-33.32.74-16.73-2.97-30.5-6.08-39.28,4.47,6.12,10.42,15.78,13.81,28.64,6.49,24.66-.37,46.16-3.66,56.04-37.35,112.07-76.27,204.8-76.27,204.8-7.43,17.71-18.69,45.23-31.54,79.75-3.17-.59-6.81-1.06-10.84-1.22-2.68-.11-5.18-.06-7.48.07,60-153.46,103.44-266.21,114.79-295.48ZM329.03,379.48c18.39,17.9,32.87,39.73,43.78,62.94-5.43,31.06-18.76,60.13-29.97,89.36-19.93-10.04-39.38-22.01-61.14-27.7l47.32-124.6ZM40.91,710.85c.62,2.66,1.74,5.19,2.61,7.78,5.6,16.6,7.13,20.86,5.73,21.85-.28.2-1.65.95-6.65-3.13-16.53-13.49-22.22-36.35-22.22-36.35-3.27-13.16-10.74-56.52,12.57-105.28,5.28-11.04,25.36-51.64,69.59-75.2,23.2-12.36,50.05-18.43,51.18-15.71.96,2.3-16.18,11.69-32.02,19.84-63.98,40.5-98.59,110.34-80.81,186.2ZM95.76,602.54c19.12-34,52.71-63.14,93.65-62.68l-87.1,211.13c-36.78-43.26-33.26-100.95-6.55-148.45ZM105.83,787.74c-7.92,12.19-16.79,23.84-30.34,34.21-8.06,6.17-15.57,11.92-27.17,16.94-14.11,6.11-22.88,5.87-27.05,13.84-2.46,4.7-3.01,11.6-.28,16.69,2.61,4.86,7.15,6.06,6.75,6.98-.69,1.61-16.18,1.65-22.04-9.29-2.82-5.27-2.55-11.71-.17-16.55,2.67-5.43,7.57-7.96,10.62-9.54,5.08-2.63,10.32-3.35,19.46-7.67h0s6.95-3.28,12.54-6.34c22.92-12.52,41.73-41.89,41.73-41.89,7.66-11.96,11.74-21.98,12.8-24.58,11.97-29.28,45.72-107.67,92.07-215.06,1.74,1.81,4.09,4.7,5.69,8.72,4.3,10.79.05,21.83-1.8,26.46-22.18,55.42-33.02,83.23-51.13,122.36-15.69,33.88-23.29,56.38-41.7,84.71ZM188.31,799.4c-7.64-31.93,4.66-62.91,15.24-92.53,19.09-53.45,41.59-105.83,61.45-159l1.1-.82c21.29,6.58,41.52,17.81,56.98,34l-24.32,67c-48.91,6.79-77.29,52.39-49.33,96.68-8.3,28.53-28.13,56.1-61.12,54.68ZM288.11,663.5c-4.11,2.79-16.65,11.55-22.9,27.62-10.11,25.99,4.3,50.31,6.27,53.5-2.98-.8-15.16-4.42-22.63-16.59-7.62-12.42-5.02-25.08-4.22-28.97,2.32-11.3,8.57-18.54,12.01-22.42,19.76-22.32,51.72-23.69,59.66-23.83-6.13.83-17.06,3.15-28.18,10.68ZM319.21,646c-.35,0-1.63,1.59-2.88,1.15-2.28-2.64,15.48-43.38,18.42-49.07.56-1.08.7-2.74,2.33-2.85,11.69,16.21,25.18,31.74,32.32,50.76h-50.19ZM381.89,886.41c-8.29,12.7-23.47,32.58-48.87,50.95,20.26-22.45,34.85-47.69,45.86-75.85,16.77-42.9,23.21-85.08,21.1-131.29-.4-8.74-2.14-18.29-2.93-27.07-.08-.92-1.03-2.57-.47-3.21.25-.29.71-.28,1.03-.24,5.44,13.18,12.69,34.57,14.87,61.74,1.2,14.98,4.86,70.68-30.6,124.97ZM438.05,646c-20.24-39.34-45.3-76.65-80.73-103.79l26.5-79.68,75.57,183.46h-21.35ZM571.54,829.43c-21.65-24.19-34.64-45.86-46.88-66.53-16.22-27.39-27.41-50.94-48.12-99.67-29.45-69.28-60.53-147.9-85.35-199.87-10.32-21.6-15.47-32.4-25.2-46.9-12.39-18.47-29.05-33.73-25.48-38.55,1.17-1.58,3.94-1.33,4.94-1.24,24.77,2.17,54.29,60.86,54.29,60.86,32.53,64.67,62.11,132.82,78.41,171.31,15.49,42.34,39.57,107.94,82.54,174.58,32.39,50.23,65.79,86.98,89.19,110.37-20.46-12.16-49.8-32.47-78.34-64.35ZM809.25,876.37c-43.18,7.08-87.8-5.89-124.25-35.41-102.6-83.07-144.82-271.81-211.55-387.26-30.94-53.53-70.17-98.26-117.97-137.28l46.23-120.4c38.61,92.9,75.57,186.55,114.85,279.18,17.19,40.53,46.67,123.54,78.98,150.62,34.4,28.84,88.47,22.72,108.68-19.41,3.14-6.55,10.19-29.6,2.11-33.71-6.1-3.1-7.86,6.1-10.95,9.87-10.62,12.96-29.54,5.84-31.63-11.11-3.72-30.27,20.57-78.2,33.5-105.86,35.53-76.02,73.61-151.16,110.3-226.65.76-1.56-.74-3.18,2.6-2.53-.41,2.49-.83,4.98-1.24,7.47.51,70.15,1.03,140.31,1.54,210.46-10.71,7.13-70.44,48.17-76.45,113.07-.72,7.73-2.64,31.63,9.3,57.21,2.78,5.95,20.63,42.77,42.39,40.76,9.95-.92,16.69-9.66,17.18-10.31,6.32-8.43,6.38-19.61,3.29-27.52-4.64-11.9-15.93-10.35-25.93-22.99-7.23-9.14-8.74-18.91-9.93-26.51-3.93-25.28,12.58-57.03,42.83-81.48.71,110.49.87,133.35.88,133.43,0,0,0,0,0,0-.19,4.61-.51,13-.73,23.48,0,0-3.06,142.45-18.79,158.56-.09.1-3.11,3.16-7.11,7.16,0,0,0,0,0,0-6.41,4.98-12.58,6.3-20.29,11.59-13.46,9.23-11.34,27.3,3.87,32.67,28.4,10.02,58.07-14.4,83.62-14.4,6.66-.14,14.68.15,15.22,2.58,1.2,5.34-33.93,20.36-60.54,24.72ZM871.49,83.37c15.7-2.28,27.89-5.5,36.34-8.11,7.35-2.28,15.73-5.29,28.23-7.14,6.54-.97,12.01-1.29,15.69-1.4-4.29.83-10.75,2.45-17.96,5.94-9.25,4.49-9.18,6.93-16.55,10.06-10.07,4.27-19.71,3.74-28.59,3.22-7.15-.42-13.04-1.57-17.16-2.57ZM949.24,801.01c-21.51,22.2-42.91,36.97-58.47,46.27,14.55-11.72,34.1-29.38,53.66-53.89,18.33-22.96,44.73-56.76,57.7-108.39,11.24-44.75,7.44-83.21,3.63-101.85-3.32-16.24-12.35-45.35-17.19-51.85-.19-.26-1.65-2.19-2.45-5.11-1.05-3.84-1-9.61,1.9-11.58,2.98-2.02,7.99.63,9.72,1.54,12.39,6.53,41.42,73.17,23.11,155.6-15.64,70.4-57.45,114.66-71.6,129.26Z"/>
</svg>