<?xml version="1.0" encoding="utf-8"?>
<!-- Generator: Adobe Illustrator 22.0.0, SVG Export Plug-In . SVG Version: 6.00 Build 0)  -->
<svg version="1.1" id="Слой_1" xmlns="http://www.w3.org/2000/svg" xmlns:xlink="http://www.w3.org/1999/xlink" x="0px" y="0px"
	 viewBox="0 0 1500 1500" style="enable-background:new 0 0 1500 1500;" xml:space="preserve">
<path d="M1141.9,795.8c-14.4-28.5-31.7-48.1-40.8-57.2l-2.3-2.3c27.7-72.7,31.9-166,12.6-277.5c-6-34.7,15.7-55.8,15.9-56l0.2-0.2
	l0.2-0.2c0.2-0.2,4.7-5.7,7.1-13.9c3.2-11.1,1-21.9-6.3-31.2c-5.8-7.4-14.3-11.4-24.7-11.4c-13,0-25.2,6.2-27.1,7.2
	c-13.4,5.8-24.6,8.3-36.1,8.3c-14.5,0-28.8-4.1-48.7-9.7c-21.5-6.1-48.2-13.7-87.5-19.8c-27.7-4.3-55.3-6.5-82.3-6.5
	c-35.5,0-62.3,3.7-78.6,6.8l-12.5,2.4c-33-8-70.8-12-112.3-12h-0.2c-59.5,0-91,6.1-139.2,19.7c-14.4,4.1-26.5,6-36.9,6
	c-13.7,0-22.9-3.3-33.7-7.1c-4.4-1.6-9-3.2-14.2-4.7c-4.4-1.3-8.8-1.9-13.1-1.9c-20.2,0-30.2,14.5-30.6,15.1l0,0.1l-0.1,0.1
	c-0.3,0.5-7.5,12.2-2.4,26.4c4.7,13.3,18.2,23.8,40.1,31.2c17.7,6,36.1,9.1,54.5,9.1c9.4,0,17.7-0.8,24.6-1.8
	c-31.1,30.3-64.9,85.5-66.6,88.3c-0.8,1.4-20.6,34.2-38.6,87.9c-10.5,31.5-18.2,63.6-22.7,95.4c-5.7,39.8-6.5,79.3-2.5,117.3
	c6.6,62.5,27.2,121.8,61.2,176.4c27,43.4,54.7,71,65.4,80.9l0.9,0.9c-14.1,16.9-29.9,29.2-47,36.3c-9.7,4-16.1,10.1-19,17.9
	c-4.1,11,0.3,21.6,1.3,23.6c2.9,8.2,13.1,23.1,32.1,23.1c4.8,0,9.8-0.9,15.1-2.7c28-9.7,75.3-37.6,87.2-44.7l3.1,2
	c72.5,46.1,141.9,55.8,187.4,55.8c22.6,0,40.3-2.3,51.2-4.3l11-2c8.2,2.4,39.4,10.7,83.2,10.7c43.9,0,86.1-8.3,125.5-24.7
	c53.1-22.1,94.5-55.8,123.1-100c26.1-40.4,41.5-89.2,45.6-145.3C1167.4,868.8,1159.8,831.3,1141.9,795.8z M376.1,352.5
	c0,0-13.3,21.4,12.4,39.3c-9.6-0.8-25.8-4.4-34.8-15.8c-5.3-12.7,1.4-23.5,1.4-23.5s8.7-12.9,26.5-12.9c3.3,0,6.9,0.5,10.9,1.5
	C381.5,344.5,376.1,352.5,376.1,352.5z M1079,357.6c0,0,12.1-6.7,24.9-6.7c3.3,0,6.5,0.4,9.7,1.5c-7.8,2-13.6,5.2-13.6,5.2
	c-19.1,8.2-33.6,10-49,8.2C1059.6,364.7,1068.6,362.1,1079,357.6z M1074.8,561.4c1,7.6,2.1,15.8,3.3,24.9
	c4.4,31.3,0.5,76.3-13.9,118.5c-6.1,18-14.2,35.6-24.3,51.3c-23.4,36.5-57.9,63.5-105.5,65.4c-6.5,0.3-12.3,0.2-17.5-0.2
	c45.8-3,79.1-29.6,102-65.2c10.1-15.8,18.2-33.3,24.3-51.3c14.4-42.2,15.4-86.9,13.9-118.5c-1.2-25.7-5.1-58-20.1-95
	C1034.6,468.9,1064.8,498.9,1074.8,561.4z M1027.1,990.7c-4.1-3.9-8.9-8.7-14.5-14.3c-24.1-24.1-60.5-60.6-89.1-77.5
	c-6.6-3.9-17.5-9.9-31.3-15.7c6.2,0.7,12.5,1,18.9,1c29.8,0,55.6-7.8,65.6-13c0.4-0.2,1.4-0.7,2.5-1.1c5.9-2.6,19.6-8.8,36.1-20.6
	c18.8-13.6,35.6-30.4,50-50.2c10.3,12.3,33.7,45.5,32.2,94.7c-1.7,53.4-18.3,103.2-44.4,133.2c-1.9,2.2-4.1,4.8-6.6,7.5
	C1047,1030.3,1048.4,1011.2,1027.1,990.7z M1016.9,1062.2c-24.5,19-60.4,37.9-112.4,43.2c8.7-9.1,19.9-22.4,28.6-38.2
	c13.1-23.7,25.9-27.2,32.4-27.2c2.3,0,4.5,0.4,6.6,1.3c3,1.2,6.6,4.1,10.5,7.2c7.9,6.3,17.8,14.1,30.2,14.1
	C1014.1,1062.4,1015.5,1062.3,1016.9,1062.2z M858.6,778.4c-2-5.7-6.3-12.8-15.7-17.5c32.8-6.5,69.8-13.1,103.9-13.1
	c25.1,0,46.2,3.5,64.6,10.6c-18.3,26.6-49.5,56.3-98.2,58.2c-2.4,0.1-4.8,0.1-7.1,0.1c-27.2,0-38.2-6.7-42.6-12.3
	c-4.3-5.4-3.3-10.8-3.3-10.8l0-0.2l0-0.2C860.4,792.5,861.3,786,858.6,778.4z M526.8,488c16.7-23.2,33.1-34.9,48.3-38.4
	c-28.5,33.8-62.8,90.1-59.6,162.5c0,0-2.6,77.7,58.7,127c15.3,12.3,34.5,22.8,58.7,29.9c18.3,5.4,39.5,8.8,64,9.6
	c-3.5,0.1-7,0.2-10.4,0.2c-29,0-53.7-3.6-74.6-9.8c-24.2-7.1-43.4-17.6-58.7-29.9c-61.2-49.3-58.7-127-58.7-127
	C492.3,562.5,507.7,520.4,526.8,488z M592.7,681.6c1.7,3.6,5.1,10,14.5,17.1c-13.1-7.9-23.6-18.6-31.3-31.8
	c-0.9-1.5-1.8-3.1-2.6-4.7c10.1-28.7,47.6-119.5,125.2-150.2c0,0,25.3-9.8,46.8-10.1h0.8c3.4,0,6.5,0.3,9.5,0.8
	c-18.4,2.4-36.1,9.3-36.1,9.3c-77.6,30.7-115,121.3-125.2,150.1C591.1,669.5,590.2,676.4,592.7,681.6z M692,721.8
	c23.9-1,51.2-5.3,81.9-13.4c39.5-10.3,98.2-22.8,169.5-24c1.8,0,3.6,0,5.4,0c3.4,0,6.7,0,9.9,0.2c-68.8,1.7-125.4,13.8-163.8,23.8
	C754.8,718.9,720.6,723.1,692,721.8z M808.2,768c4.2-3.9,9.7-6.5,16.7-6.5c2.5,0,5.2,0.3,8.1,1.1c0.2,0.1,0.5,0.1,0.7,0.2
	c0.8,0.2,1.6,0.5,2.3,0.7c-12.7,5.5-17.8,21.1-17.4,29c0.5,8.8-1.2,38.9,28.6,61.7c-20.1-4.9-45.6-21.4-49.4-55
	c-0.1-2.8-0.2-5.1-0.2-6.7C797.3,786.2,800.5,775.1,808.2,768z M957.2,412.8l0.2,0.1l0.2,0c0.1,0,10.4,3.1,23.4,11.7
	c11.9,7.8,28.7,22,40.6,45.2c24.7,47.8,29.2,89.5,30.5,116.8c1.9,42.2-2,79.4-11.8,110.8l-0.1,0c-12.7-6.7-41.5-17.9-91.6-17.9
	c-1.8,0-3.6,0-5.4,0c-56.1,0.9-112,8.8-170.7,24.1c-34.2,8.9-64.9,13.4-91.3,13.4c-21.8,0-41-3.1-57.1-9.1l0.4-1.5
	c4.5-16.4,18-58.4,45.5-94.1c34.1-44.5,64.6-46.4,81-47.5c10-0.7,19-4.4,25.5-10.5c7-6.5,10.5-15.4,10-24.9
	c-1-19.7-16.9-32.5-40.6-32.5c-0.3,0-0.6,0-0.9,0c-22.2,0.3-47.5,10-48.5,10.4c-34.2,13.5-64.6,39.7-90.3,77.7
	c-19,28.2-30.8,56-36.6,72c-9.3-20.9-13.1-47.1-11.3-78.1c1.7-29,19.3-62.7,49.5-94.9c28.8-30.7,66.8-57.2,104.3-72.8l10.3-4.3
	c3.1,0.4,19.5,2.8,38.9,11.8c28.5,13.2,49.5,33.6,62.4,60.7l0,0.1l0,0.1c0.1,0.2,12.4,24.5,9.9,61c-2.2,32.6-18.5,50.8-49.9,55.8
	c-4.9,0.8-9.9,1.1-15.7,1.1c-3.7,0-7.3-0.1-10.8-0.3c-3.2-0.1-6.2-0.3-9.2-0.3c-11.4,0-23.2,1.9-32.1,15.9
	c-7.4,11.6-6.1,21.7-3.7,28.1c4.1,11,14.6,19.4,22.4,21.7c5.8,1.7,18.6,2.8,31.8,2.8c11.6,0,33.8-0.9,51.9-7.1
	c40.3-13.7,66.8-41.9,78.6-83.7c8-28.4,5.4-58.2,1.8-78.1c-4.6-25.4-12.6-45.7-18.1-55.4c-0.5-0.8-1-1.8-1.6-2.9
	c-4.8-8.9-14.1-26-32.6-44.2C871,395.6,921.9,399.9,957.2,412.8z M746.3,651.2c-14.2,2.4-31.8-9.1-30.2-24.8c0.6-3.4,2-7,4.4-10.6
	c7.4-11.6,16.5-13.6,27.9-13.6c4.2,0,8.6,0.3,13.4,0.4c-8,1-14.7,4.3-20.3,13.2C731.9,630.7,738.2,643.6,746.3,651.2z M822.3,330.4
	c3.4,0,7,0,10.6,0.1c-30.5,0.6-53.6,4-67.3,6.6c0.1,0,0.2,0,0.3,0.1c-2.4,0.3-4.8,0.5-7.2,0.8c16.9,6,48.1,18.4,71.1,40.3
	c-23.2-17.9-51.8-31.7-85.2-41.2C759.7,334.3,786.6,330.4,822.3,330.4z M849.4,477.4c0,0,13.1,25.1,10.5,63.7
	c-2.6,38.5-24,55.7-54.1,60.4c-10.7,1.7-20.1,1.2-28.5,0.9c2.4-0.2,4.9-0.5,7.5-0.9c30.1-4.8,51.5-21.9,54.1-60.4
	c2.6-38.5-10.5-63.7-10.5-63.7c-25.8-53.9-76.9-69.7-97.2-73.9l0.1-0.1l-0.7,0c-5.1-1-8.1-1.3-8.1-1.3c-12-1.5-23.8-2.2-35.2-2.2
	c-44.8,0-82.4,9.7-93.5,12.8C707.7,378.2,810.9,393.8,849.4,477.4z M453.4,352.7c-0.2,0-0.4,0-0.6,0c7.9-0.8,17-2.6,27.9-5.7
	c48.7-13.7,79.3-19.5,137.9-19.5h0.2c3.2,0,6.4,0,9.6,0.1c-51.5,0.7-81.3,6.6-126.7,19.4C479.9,353.2,465.3,354.2,453.4,352.7z
	 M363.3,803.1c3.6,33.7,11.1,64.5,20.8,92c11,37.8,24.7,84.4,1,51.1c-19.8-38.7-36.8-86.7-42.8-143.1c-13.4-126.3,30.6-233.6,52-277
	c-0.1,0.2-0.1,0.3-0.2,0.4c32-54.4,56-71.8,72.7-79.5c-22,28.2-40.5,58.5-40.5,58.5S345.8,638.1,363.3,803.1z M436.6,908.9
	C407,843,397.2,767.7,407.5,685.1c14.1-113.5,63.7-180,102.8-215.8c20.1-18.4,39.4-30.7,54.2-38.6c-13.8,14.2-30.7,34.5-45.1,60.3
	c-21.6,38.8-31.7,79.6-29.9,121.2c-0.1,2.3-0.3,21.4,6.5,46.3c6.4,23.4,20.6,56.5,51.5,82.5l-0.7,3.6c-4.6,22.7-20,100.7-23.3,154.1
	c-2,33.6-10.6,70.7-23.8,103C488,990.3,459.6,960,436.6,908.9z M522.7,1009.9c-8.1,18.6-18,36.1-29.9,51.3h0
	c-14.4,18.3-31.7,33-52,41.5c-26.9,11.2-15,35-15,35s1.9,5.6,6.8,10.9c-10.5,2.3-22.3-3.1-28.3-12c-1.9-4.7-8-24.2,15.5-34
	c20.3-8.5,37.6-23.2,52-41.5h0c11.9-15.1,21.9-32.7,29.9-51.3c16.2-37.2,24.9-78.2,26.9-111.1c2.9-47.8,15.5-115.1,21.4-144.6
	c11.4,2,16.6,13.9,15.5,28.8c-6.2,33.6-13.7,80.1-15.9,115.8C547.6,931.7,538.9,972.8,522.7,1009.9z M725,1168
	c-46.5,0-114.1-10.1-184.7-55c8.3-4.5,35.8-17.6,71.4-18.3c1.5,0,3-0.1,4.5-0.1c3.6,0,7,0.1,10.2,0.3c0.1,0,0.1,0,0.2,0
	c-32.6,1.9-57.4,13.8-65.3,18c65.4,41.6,128.2,53.3,174,54.9C731.9,1167.9,728.5,1168,725,1168z M792.8,1095.3
	c-48.1-14.7-81-41-100.1-60.6c-20.8-21.3-30.1-39.2-30.2-39.4l-0.1-0.2l-0.1-0.2c-44.7-73.5-45.3-194.9-44.9-219.3
	c20.7,5.3,43.9,8,69,8c20.8,0,43.4-1.9,67.2-5.5c15.5-2.4,31.4-5.5,46.5-8.5c-5.3,7.5-7.8,16.8-7.5,23.1c0,0.7,0,1.5,0.1,2.4
	c0.4,12.9,1.4,50,46.1,72.8c-7.7-1.1-15.6-1.8-23.7-1.8c-28,0-52.8,7.9-73.8,23.4c-33.3,24.6-44.3,54-47.7,74.3
	c-3.6,21.6,0.3,37.6,0.7,38.9c0.3,1.1,3.2,12.7,12.2,25.2c8.5,12,24.2,27.1,50.9,31.6c0.5,0.1,2.2,0.4,4.6,0.4
	c6.3,0,21.8-2.1,28.3-22c4.4-13.4,0.8-23.6-3.1-29.8c-3.9-6.3-8.7-9.8-9.5-10.3l-9.9-7.1l-0.3-0.2l-0.3-0.2
	c-1.1-0.6-10.7-6.4-5.9-19.3c3.1-8.3,15.8-35.3,51.3-36.2c0.9,0,1.8,0,2.7,0c33.4,0,57,16.2,65.4,23.1c0.4,6.5,0.9,28.2-6.5,52.8
	c-11.7,38.9-36.7,66.4-74.2,81.8L792.8,1095.3z M720.2,1001.5c0,0,6,25.3,29.3,41.3c-17.3,1.9-44.9-14.4-51.5-47.9
	c-2.3-17.2-3.3-64.7,46.4-101.4c22.2-16.4,46.8-22.4,70.8-22.4c3.6,0,7.1,0.1,10.7,0.4c-20.7,1.5-41.5,8-60.5,22
	C703.6,939.1,720.2,1001.5,720.2,1001.5z M801.9,1096.9c57.9-23.7,76.2-71.6,81.7-105.1c8-24.6,20.3-6,16.9,18.1
	c-8.8,31-29.7,67.3-77.7,87c19.4,5.1,39.9,8.1,61.2,8.8c-3.5,0.1-7,0.2-10.4,0.2C848.6,1105.9,824.5,1102.9,801.9,1096.9z
	 M1123.4,894.1c-2,65-24,111.4-45.6,136.3c-21.5,24.7-67.8,75.8-165.7,81c-0.7,0-1.4,0.1-2.1,0.1c-8.9,0.4-17.5,0.5-25.9,0.2
	c-0.5,0-1,0-1.5,0c2.1-0.1,4.2-0.1,6.4-0.2c0.7,0,1.4-0.1,2.1-0.1c69.3-3.7,112.8-30.4,139.9-54.5c0,0,0,0,0,0s0,0,0,0l0.2-0.2
	c3.3-2.9,6.4-5.9,9.2-8.7l0.2-0.2c0,0,0,0,0,0c6.5-6.5,11.8-12.5,16.2-17.5c21.6-24.8,43.6-71.3,45.6-136.3
	c0.7-22.2-3.6-41.3-9.4-56.9c-1.8-15,11.5-16.2,20-2.6C1119.4,850.6,1124.2,870.6,1123.4,894.1z"/>
</svg>
