<svg width="832" height="856" viewBox="0 0 832 856" fill="none" xmlns="http://www.w3.org/2000/svg">
<path d="M807.9 473.8C793.5 445.3 776.2 425.7 767.1 416.6L764.8 414.3C792.5 341.6 796.7 248.3 777.4 136.8C771.4 102.1 793.1 80.9996 793.3 80.7996L793.5 80.5996L793.7 80.3996C793.9 80.1996 798.4 74.6996 800.8 66.4996C804 55.3996 801.8 44.5996 794.5 35.2996C788.7 27.8996 780.2 23.8996 769.8 23.8996C756.8 23.8996 744.6 30.0996 742.7 31.0996C729.3 36.8996 718.1 39.3996 706.6 39.3996C692.1 39.3996 677.8 35.2996 657.9 29.6996C636.4 23.5996 609.7 15.9996 570.4 9.8996C542.7 5.5996 515.1 3.3996 488.1 3.3996C452.6 3.3996 425.8 7.09962 409.5 10.1996L397 12.5996C364 4.59961 326.2 0.599609 284.7 0.599609H284.5C225 0.599609 193.5 6.69959 145.3 20.2996C130.9 24.3996 118.8 26.2996 108.4 26.2996C94.7002 26.2996 85.5002 22.9996 74.7002 19.1996C70.3002 17.5996 65.7002 15.9996 60.5002 14.4996C56.1002 13.1996 51.7002 12.5996 47.4002 12.5996C27.2002 12.5996 17.2002 27.0996 16.8002 27.6996V27.7996L16.7002 27.8996C16.4002 28.3996 9.20022 40.0996 14.3002 54.2996C19.0002 67.5996 32.5002 78.0996 54.4002 85.4996C72.1002 91.4996 90.5002 94.5996 108.9 94.5996C118.3 94.5996 126.6 93.7996 133.5 92.7996C102.4 123.1 68.6002 178.3 66.9002 181.1C66.1002 182.5 46.3002 215.3 28.3002 269C17.8002 300.5 10.1002 332.6 5.60023 364.4C-0.0997653 404.2 -0.899765 443.7 3.10023 481.7C9.70023 544.2 30.3002 603.5 64.3002 658.1C91.3002 701.5 119 729.1 129.7 739L130.6 739.9C116.5 756.8 100.7 769.1 83.6002 776.2C73.9002 780.2 67.5002 786.3 64.6002 794.1C60.5002 805.1 64.9002 815.7 65.9002 817.7C68.8002 825.9 79.0002 840.8 98.0002 840.8C102.8 840.8 107.8 839.9 113.1 838.1C141.1 828.4 188.4 800.5 200.3 793.4L203.4 795.4C275.9 841.5 345.3 851.2 390.8 851.2C413.4 851.2 431.1 848.9 442 846.9L453 844.9C461.2 847.3 492.4 855.6 536.2 855.6C580.1 855.6 622.3 847.3 661.7 830.9C714.8 808.8 756.2 775.1 784.8 730.9C810.9 690.5 826.3 641.7 830.4 585.6C833.4 546.8 825.8 509.3 807.9 473.8ZM42.1002 30.4996C42.1002 30.4996 28.8002 51.8996 54.5002 69.7996C44.9002 68.9996 28.7002 65.3996 19.7002 53.9996C14.4002 41.2996 21.1002 30.4996 21.1002 30.4996C21.1002 30.4996 29.8002 17.5996 47.6002 17.5996C50.9002 17.5996 54.5002 18.0996 58.5002 19.0996C47.5002 22.4996 42.1002 30.4996 42.1002 30.4996ZM745 35.5996C745 35.5996 757.1 28.8996 769.9 28.8996C773.2 28.8996 776.4 29.2996 779.6 30.3996C771.8 32.3996 766 35.5996 766 35.5996C746.9 43.7996 732.4 45.5996 717 43.7996C725.6 42.6996 734.6 40.0996 745 35.5996ZM740.8 239.4C741.8 247 742.9 255.2 744.1 264.3C748.5 295.6 744.6 340.6 730.2 382.8C724.1 400.8 716 418.4 705.9 434.1C682.5 470.6 648 497.6 600.4 499.5C593.9 499.8 588.1 499.7 582.9 499.3C628.7 496.3 662 469.7 684.9 434.1C695 418.3 703.1 400.8 709.2 382.8C723.6 340.6 724.6 295.9 723.1 264.3C721.9 238.6 718 206.3 703 169.3C700.6 146.9 730.8 176.9 740.8 239.4ZM693.1 668.7C689 664.8 684.2 660 678.6 654.4C654.5 630.3 618.1 593.8 589.5 576.9C582.9 573 572 567 558.2 561.2C564.4 561.9 570.7 562.2 577.1 562.2C606.9 562.2 632.7 554.4 642.7 549.2C643.1 549 644.1 548.5 645.2 548.1C651.1 545.5 664.8 539.3 681.3 527.5C700.1 513.9 716.9 497.1 731.3 477.3C741.6 489.6 765 522.8 763.5 572C761.8 625.4 745.2 675.2 719.1 705.2C717.2 707.4 715 710 712.5 712.7C713 708.3 714.4 689.2 693.1 668.7ZM682.9 740.2C658.4 759.2 622.5 778.1 570.5 783.4C579.2 774.3 590.4 761 599.1 745.2C612.2 721.5 625 718 631.5 718C633.8 718 636 718.4 638.1 719.3C641.1 720.5 644.7 723.4 648.6 726.5C656.5 732.8 666.4 740.6 678.8 740.6C680.1 740.4 681.5 740.3 682.9 740.2ZM524.6 456.4C522.6 450.7 518.3 443.6 508.9 438.9C541.7 432.4 578.7 425.8 612.8 425.8C637.9 425.8 659 429.3 677.4 436.4C659.1 463 627.9 492.7 579.2 494.6C576.8 494.7 574.4 494.7 572.1 494.7C544.9 494.7 533.9 488 529.5 482.4C525.2 477 526.2 471.6 526.2 471.6V471.4V471.2C526.4 470.5 527.3 464 524.6 456.4ZM192.8 166C209.5 142.8 225.9 131.1 241.1 127.6C212.6 161.4 178.3 217.7 181.5 290.1C181.5 290.1 178.9 367.8 240.2 417.1C255.5 429.4 274.7 439.9 298.9 447C317.2 452.4 338.4 455.8 362.9 456.6C359.4 456.7 355.9 456.8 352.5 456.8C323.5 456.8 298.8 453.2 277.9 447C253.7 439.9 234.5 429.4 219.2 417.1C158 367.8 160.5 290.1 160.5 290.1C158.3 240.5 173.7 198.4 192.8 166ZM258.7 359.6C260.4 363.2 263.8 369.6 273.2 376.7C260.1 368.8 249.6 358.1 241.9 344.9C241 343.4 240.1 341.8 239.3 340.2C249.4 311.5 286.9 220.7 364.5 190C364.5 190 389.8 180.2 411.3 179.9H412.1C415.5 179.9 418.6 180.2 421.6 180.7C403.2 183.1 385.5 190 385.5 190C307.9 220.7 270.5 311.3 260.3 340.1C257.1 347.5 256.2 354.4 258.7 359.6ZM358 399.8C381.9 398.8 409.2 394.5 439.9 386.4C479.4 376.1 538.1 363.6 609.4 362.4C611.2 362.4 613 362.4 614.8 362.4C618.2 362.4 621.5 362.4 624.7 362.6C555.9 364.3 499.3 376.4 460.9 386.4C420.8 396.9 386.6 401.1 358 399.8ZM474.2 446C478.4 442.1 483.9 439.5 490.9 439.5C493.4 439.5 496.1 439.8 499 440.6C499.2 440.7 499.5 440.7 499.7 440.8C500.5 441 501.3 441.3 502 441.5C489.3 447 484.2 462.6 484.6 470.5C485.1 479.3 483.4 509.4 513.2 532.2C493.1 527.3 467.6 510.8 463.8 477.2C463.7 474.4 463.6 472.1 463.6 470.5C463.3 464.2 466.5 453.1 474.2 446ZM623.2 90.7996L623.4 90.8996H623.6C623.7 90.8996 634 93.9996 647 102.6C658.9 110.4 675.7 124.6 687.6 147.8C712.3 195.6 716.8 237.3 718.1 264.6C720 306.8 716.1 344 706.3 375.4H706.2C693.5 368.7 664.7 357.5 614.6 357.5C612.8 357.5 611 357.5 609.2 357.5C553.1 358.4 497.2 366.3 438.5 381.6C404.3 390.5 373.6 395 347.2 395C325.4 395 306.2 391.9 290.1 385.9L290.5 384.4C295 368 308.5 326 336 290.3C370.1 245.8 400.6 243.9 417 242.8C427 242.1 436 238.4 442.5 232.3C449.5 225.8 453 216.9 452.5 207.4C451.5 187.7 435.6 174.9 411.9 174.9C411.6 174.9 411.3 174.9 411 174.9C388.8 175.2 363.5 184.9 362.5 185.3C328.3 198.8 297.9 225 272.2 263C253.2 291.2 241.4 319 235.6 335C226.3 314.1 222.5 287.9 224.3 256.9C226 227.9 243.6 194.2 273.8 162C302.6 131.3 340.6 104.8 378.1 89.1996L388.4 84.8996C391.5 85.2996 407.9 87.6996 427.3 96.6996C455.8 109.9 476.8 130.3 489.7 157.4V157.5V157.6C489.8 157.8 502.1 182.1 499.6 218.6C497.4 251.2 481.1 269.4 449.7 274.4C444.8 275.2 439.8 275.5 434 275.5C430.3 275.5 426.7 275.4 423.2 275.2C420 275.1 417 274.9 414 274.9C402.6 274.9 390.8 276.8 381.9 290.8C374.5 302.4 375.8 312.5 378.2 318.9C382.3 329.9 392.8 338.3 400.6 340.6C406.4 342.3 419.2 343.4 432.4 343.4C444 343.4 466.2 342.5 484.3 336.3C524.6 322.6 551.1 294.4 562.9 252.6C570.9 224.2 568.3 194.4 564.7 174.5C560.1 149.1 552.1 128.8 546.6 119.1C546.1 118.3 545.6 117.3 545 116.2C540.2 107.3 530.9 90.1996 512.4 71.9996C537 73.5996 587.9 77.8996 623.2 90.7996ZM412.3 329.2C398.1 331.6 380.5 320.1 382.1 304.4C382.7 301 384.1 297.4 386.5 293.8C393.9 282.2 403 280.2 414.4 280.2C418.6 280.2 423 280.5 427.8 280.6C419.8 281.6 413.1 284.9 407.5 293.8C397.9 308.7 404.2 321.6 412.3 329.2ZM488.3 8.3996C491.7 8.3996 495.3 8.3996 498.9 8.4996C468.4 9.0996 445.3 12.4996 431.6 15.0996C431.7 15.0996 431.8 15.0996 431.9 15.1996C429.5 15.4996 427.1 15.6996 424.7 15.9996C441.6 21.9996 472.8 34.3996 495.8 56.2996C472.6 38.3996 444 24.5996 410.6 15.0996C425.7 12.2996 452.6 8.3996 488.3 8.3996ZM515.4 155.4C515.4 155.4 528.5 180.5 525.9 219.1C523.3 257.6 501.9 274.8 471.8 279.5C461.1 281.2 451.7 280.7 443.3 280.4C445.7 280.2 448.2 279.9 450.8 279.5C480.9 274.7 502.3 257.6 504.9 219.1C507.5 180.6 494.4 155.4 494.4 155.4C468.6 101.5 417.5 85.6996 397.2 81.4996L397.3 81.3996H396.6C391.5 80.3996 388.5 80.0996 388.5 80.0996C376.5 78.5996 364.7 77.8996 353.3 77.8996C308.5 77.8996 270.9 87.5996 259.8 90.6996C373.7 56.1996 476.9 71.7996 515.4 155.4ZM119.4 30.6996C119.2 30.6996 119 30.6996 118.8 30.6996C126.7 29.8996 135.8 28.0996 146.7 24.9996C195.4 11.2996 226 5.4996 284.6 5.4996H284.8C288 5.4996 291.2 5.49961 294.4 5.59961C242.9 6.29961 213.1 12.1996 167.7 24.9996C145.9 31.1996 131.3 32.1996 119.4 30.6996ZM29.3002 481.1C32.9002 514.8 40.4002 545.6 50.1002 573.1C61.1002 610.9 74.8002 657.5 51.1002 624.2C31.3002 585.5 14.3002 537.5 8.30022 481.1C-5.09978 354.8 38.9002 247.5 60.3002 204.1C60.2002 204.3 60.2002 204.4 60.1002 204.5C92.1002 150.1 116.1 132.7 132.8 125C110.8 153.2 92.3002 183.5 92.3002 183.5C92.3002 183.5 11.8002 316.1 29.3002 481.1ZM102.6 586.9C73.0002 521 63.2002 445.7 73.5002 363.1C87.6002 249.6 137.2 183.1 176.3 147.3C196.4 128.9 215.7 116.6 230.5 108.7C216.7 122.9 199.8 143.2 185.4 169C163.8 207.8 153.7 248.6 155.5 290.2C155.4 292.5 155.2 311.6 162 336.5C168.4 359.9 182.6 393 213.5 419L212.8 422.6C208.2 445.3 192.8 523.3 189.5 576.7C187.5 610.3 178.9 647.4 165.7 679.7C154 668.3 125.6 638 102.6 586.9ZM188.7 687.9C180.6 706.5 170.7 724 158.8 739.2C144.4 757.5 127.1 772.2 106.8 780.7C79.9002 791.9 91.8002 815.7 91.8002 815.7C91.8002 815.7 93.7002 821.3 98.6002 826.6C88.1002 828.9 76.3002 823.5 70.3002 814.6C68.4002 809.9 62.3002 790.4 85.8002 780.6C106.1 772.1 123.4 757.4 137.8 739.1C149.7 724 159.7 706.4 167.7 687.8C183.9 650.6 192.6 609.6 194.6 576.7C197.5 528.9 210.1 461.6 216 432.1C227.4 434.1 232.6 446 231.5 460.9C225.3 494.5 217.8 541 215.6 576.7C213.6 609.7 204.9 650.8 188.7 687.9ZM391 846C344.5 846 276.9 835.9 206.3 791C214.6 786.5 242.1 773.4 277.7 772.7C279.2 772.7 280.7 772.6 282.2 772.6C285.8 772.6 289.2 772.7 292.4 772.9C292.5 772.9 292.5 772.9 292.6 772.9C260 774.8 235.2 786.7 227.3 790.9C292.7 832.5 355.5 844.2 401.3 845.8C397.9 845.9 394.5 846 391 846ZM458.8 773.3C410.7 758.6 377.8 732.3 358.7 712.7C337.9 691.4 328.6 673.5 328.5 673.3L328.4 673.1L328.3 672.9C283.6 599.4 283 478 283.4 453.6C304.1 458.9 327.3 461.6 352.4 461.6C373.2 461.6 395.8 459.7 419.6 456.1C435.1 453.7 451 450.6 466.1 447.6C460.8 455.1 458.3 464.4 458.6 470.7C458.6 471.4 458.6 472.2 458.7 473.1C459.1 486 460.1 523.1 504.8 545.9C497.1 544.8 489.2 544.1 481.1 544.1C453.1 544.1 428.3 552 407.3 567.5C374 592.1 363 621.5 359.6 641.8C356 663.4 359.9 679.4 360.3 680.7C360.6 681.8 363.5 693.4 372.5 705.9C381 717.9 396.7 733 423.4 737.5C423.9 737.6 425.6 737.9 428 737.9C434.3 737.9 449.8 735.8 456.3 715.9C460.7 702.5 457.1 692.3 453.2 686.1C449.3 679.8 444.5 676.3 443.7 675.8L433.8 668.7L433.5 668.5L433.2 668.3C432.1 667.7 422.5 661.9 427.3 649C430.4 640.7 443.1 613.7 478.6 612.8C479.5 612.8 480.4 612.8 481.3 612.8C514.7 612.8 538.3 629 546.7 635.9C547.1 642.4 547.6 664.1 540.2 688.7C528.5 727.6 503.5 755.1 466 770.5L458.8 773.3ZM386.2 679.5C386.2 679.5 392.2 704.8 415.5 720.8C398.2 722.7 370.6 706.4 364 672.9C361.7 655.7 360.7 608.2 410.4 571.5C432.6 555.1 457.2 549.1 481.2 549.1C484.8 549.1 488.3 549.2 491.9 549.5C471.2 551 450.4 557.5 431.4 571.5C369.6 617.1 386.2 679.5 386.2 679.5ZM467.9 774.9C525.8 751.2 544.1 703.3 549.6 669.8C557.6 645.2 569.9 663.8 566.5 687.9C557.7 718.9 536.8 755.2 488.8 774.9C508.2 780 528.7 783 550 783.7C546.5 783.8 543 783.9 539.6 783.9C514.6 783.9 490.5 780.9 467.9 774.9ZM789.4 572.1C787.4 637.1 765.4 683.5 743.8 708.4C722.3 733.1 676 784.2 578.1 789.4C577.4 789.4 576.7 789.5 576 789.5C567.1 789.9 558.5 790 550.1 789.7C549.6 789.7 549.1 789.7 548.6 789.7C550.7 789.6 552.8 789.6 555 789.5C555.7 789.5 556.4 789.4 557.1 789.4C626.4 785.7 669.9 759 697 734.9L697.2 734.7C700.5 731.8 703.6 728.8 706.4 726L706.6 725.8C713.1 719.3 718.4 713.3 722.8 708.3C744.4 683.5 766.4 637 768.4 572C769.1 549.8 764.8 530.7 759 515.1C757.2 500.1 770.5 498.9 779 512.5C785.4 528.6 790.2 548.6 789.4 572.1Z" fill="white"/>
</svg>
